<mxfile host="app.diagrams.net" modified="2021-10-13T19:02:59.169Z" agent="5.0 (Windows NT 10.0; Win64; x64) AppleWebKit/537.36 (KHTML, like Gecko) Chrome/93.0.4577.82 Safari/537.36 OPR/79.0.4143.73" etag="XaFh_Z1VF58yVOFpPa1S" version="15.5.2" type="github">
  <diagram id="_neyJDUhcIDQLJpy4f3w" name="Page-1">
    <mxGraphModel dx="659" dy="752" grid="1" gridSize="10" guides="1" tooltips="1" connect="1" arrows="1" fold="1" page="1" pageScale="1" pageWidth="827" pageHeight="1169" math="0" shadow="0">
      <root>
        <mxCell id="0" />
        <mxCell id="1" parent="0" />
        <mxCell id="6_kI2jR5GbqQSft1mp5x-4" style="edgeStyle=orthogonalEdgeStyle;rounded=0;orthogonalLoop=1;jettySize=auto;html=1;entryX=0.5;entryY=0;entryDx=0;entryDy=0;" edge="1" parent="1" source="6_kI2jR5GbqQSft1mp5x-1" target="6_kI2jR5GbqQSft1mp5x-3">
          <mxGeometry relative="1" as="geometry" />
        </mxCell>
        <mxCell id="6_kI2jR5GbqQSft1mp5x-1" value="START" style="ellipse;whiteSpace=wrap;html=1;" vertex="1" parent="1">
          <mxGeometry x="220" y="50" width="120" height="80" as="geometry" />
        </mxCell>
        <mxCell id="6_kI2jR5GbqQSft1mp5x-2" value="STOP" style="ellipse;whiteSpace=wrap;html=1;" vertex="1" parent="1">
          <mxGeometry x="220" y="840" width="120" height="80" as="geometry" />
        </mxCell>
        <mxCell id="6_kI2jR5GbqQSft1mp5x-9" style="edgeStyle=orthogonalEdgeStyle;rounded=0;orthogonalLoop=1;jettySize=auto;html=1;entryX=0.5;entryY=0;entryDx=0;entryDy=0;" edge="1" parent="1" source="6_kI2jR5GbqQSft1mp5x-3" target="6_kI2jR5GbqQSft1mp5x-7">
          <mxGeometry relative="1" as="geometry" />
        </mxCell>
        <mxCell id="6_kI2jR5GbqQSft1mp5x-3" value="Wczytaj (a)&lt;br&gt;Wczytaj (b)&lt;br&gt;Wczytaj (c)" style="shape=parallelogram;perimeter=parallelogramPerimeter;whiteSpace=wrap;html=1;fixedSize=1;" vertex="1" parent="1">
          <mxGeometry x="210" y="180" width="140" height="70" as="geometry" />
        </mxCell>
        <mxCell id="6_kI2jR5GbqQSft1mp5x-17" style="edgeStyle=orthogonalEdgeStyle;rounded=0;orthogonalLoop=1;jettySize=auto;html=1;entryX=0.5;entryY=0;entryDx=0;entryDy=0;" edge="1" parent="1" source="6_kI2jR5GbqQSft1mp5x-6" target="6_kI2jR5GbqQSft1mp5x-14">
          <mxGeometry relative="1" as="geometry" />
        </mxCell>
        <mxCell id="6_kI2jR5GbqQSft1mp5x-18" style="edgeStyle=orthogonalEdgeStyle;rounded=0;orthogonalLoop=1;jettySize=auto;html=1;entryX=0.5;entryY=0;entryDx=0;entryDy=0;" edge="1" parent="1" source="6_kI2jR5GbqQSft1mp5x-6" target="6_kI2jR5GbqQSft1mp5x-13">
          <mxGeometry relative="1" as="geometry" />
        </mxCell>
        <mxCell id="6_kI2jR5GbqQSft1mp5x-6" value="a &amp;gt; b" style="rhombus;whiteSpace=wrap;html=1;" vertex="1" parent="1">
          <mxGeometry x="235" y="400" width="90" height="90" as="geometry" />
        </mxCell>
        <mxCell id="6_kI2jR5GbqQSft1mp5x-11" style="edgeStyle=orthogonalEdgeStyle;rounded=0;orthogonalLoop=1;jettySize=auto;html=1;entryX=0.5;entryY=0;entryDx=0;entryDy=0;" edge="1" parent="1" source="6_kI2jR5GbqQSft1mp5x-7" target="6_kI2jR5GbqQSft1mp5x-6">
          <mxGeometry relative="1" as="geometry" />
        </mxCell>
        <mxCell id="6_kI2jR5GbqQSft1mp5x-7" value="x = 0" style="rounded=0;whiteSpace=wrap;html=1;" vertex="1" parent="1">
          <mxGeometry x="220" y="290" width="120" height="60" as="geometry" />
        </mxCell>
        <mxCell id="6_kI2jR5GbqQSft1mp5x-28" style="edgeStyle=orthogonalEdgeStyle;rounded=0;orthogonalLoop=1;jettySize=auto;html=1;entryX=0.5;entryY=0;entryDx=0;entryDy=0;" edge="1" parent="1" source="6_kI2jR5GbqQSft1mp5x-12" target="6_kI2jR5GbqQSft1mp5x-27">
          <mxGeometry relative="1" as="geometry" />
        </mxCell>
        <mxCell id="6_kI2jR5GbqQSft1mp5x-29" style="edgeStyle=orthogonalEdgeStyle;rounded=0;orthogonalLoop=1;jettySize=auto;html=1;entryX=0.5;entryY=0;entryDx=0;entryDy=0;" edge="1" parent="1" source="6_kI2jR5GbqQSft1mp5x-12" target="6_kI2jR5GbqQSft1mp5x-15">
          <mxGeometry relative="1" as="geometry" />
        </mxCell>
        <mxCell id="6_kI2jR5GbqQSft1mp5x-12" value="x &amp;gt; c" style="rhombus;whiteSpace=wrap;html=1;" vertex="1" parent="1">
          <mxGeometry x="240" y="620" width="80" height="80" as="geometry" />
        </mxCell>
        <mxCell id="6_kI2jR5GbqQSft1mp5x-19" style="edgeStyle=orthogonalEdgeStyle;rounded=0;orthogonalLoop=1;jettySize=auto;html=1;entryX=0.5;entryY=0;entryDx=0;entryDy=0;" edge="1" parent="1" source="6_kI2jR5GbqQSft1mp5x-13" target="6_kI2jR5GbqQSft1mp5x-12">
          <mxGeometry relative="1" as="geometry" />
        </mxCell>
        <mxCell id="6_kI2jR5GbqQSft1mp5x-13" value="x = b" style="rounded=0;whiteSpace=wrap;html=1;" vertex="1" parent="1">
          <mxGeometry x="360" y="520" width="95" height="45" as="geometry" />
        </mxCell>
        <mxCell id="6_kI2jR5GbqQSft1mp5x-21" style="edgeStyle=orthogonalEdgeStyle;rounded=0;orthogonalLoop=1;jettySize=auto;html=1;entryX=0.5;entryY=0;entryDx=0;entryDy=0;" edge="1" parent="1" source="6_kI2jR5GbqQSft1mp5x-14" target="6_kI2jR5GbqQSft1mp5x-12">
          <mxGeometry relative="1" as="geometry" />
        </mxCell>
        <mxCell id="6_kI2jR5GbqQSft1mp5x-14" value="x = a" style="rounded=0;whiteSpace=wrap;html=1;" vertex="1" parent="1">
          <mxGeometry x="125" y="520" width="85" height="45" as="geometry" />
        </mxCell>
        <mxCell id="6_kI2jR5GbqQSft1mp5x-26" style="edgeStyle=orthogonalEdgeStyle;rounded=0;orthogonalLoop=1;jettySize=auto;html=1;entryX=0.5;entryY=0;entryDx=0;entryDy=0;" edge="1" parent="1" source="6_kI2jR5GbqQSft1mp5x-15" target="6_kI2jR5GbqQSft1mp5x-2">
          <mxGeometry relative="1" as="geometry" />
        </mxCell>
        <mxCell id="6_kI2jR5GbqQSft1mp5x-15" value="Wypisz (c)" style="shape=parallelogram;perimeter=parallelogramPerimeter;whiteSpace=wrap;html=1;fixedSize=1;" vertex="1" parent="1">
          <mxGeometry x="354" y="720" width="120" height="60" as="geometry" />
        </mxCell>
        <mxCell id="6_kI2jR5GbqQSft1mp5x-30" style="edgeStyle=orthogonalEdgeStyle;rounded=0;orthogonalLoop=1;jettySize=auto;html=1;entryX=0.5;entryY=0;entryDx=0;entryDy=0;" edge="1" parent="1" source="6_kI2jR5GbqQSft1mp5x-27" target="6_kI2jR5GbqQSft1mp5x-2">
          <mxGeometry relative="1" as="geometry">
            <Array as="points">
              <mxPoint x="280" y="750" />
            </Array>
          </mxGeometry>
        </mxCell>
        <mxCell id="6_kI2jR5GbqQSft1mp5x-27" value="Wypisz (x)" style="shape=parallelogram;perimeter=parallelogramPerimeter;whiteSpace=wrap;html=1;fixedSize=1;" vertex="1" parent="1">
          <mxGeometry x="100" y="720" width="120" height="60" as="geometry" />
        </mxCell>
      </root>
    </mxGraphModel>
  </diagram>
</mxfile>
